<svg width="100" height="100" viewBox="0 0 100 100" fill="none" xmlns="http://www.w3.org/2000/svg">
<path d="M11.1111 100C8.05555 100 5.44074 98.9129 3.26667 96.7389C1.09259 94.5648 0.0037037 91.9481 0 88.8889V11.1111C0 8.05555 1.08889 5.44074 3.26667 3.26667C5.44444 1.09259 8.05926 0.0037037 11.1111 0H88.8889C91.9444 0 94.5611 1.08889 96.7389 3.26667C98.9167 5.44444 100.004 8.05926 100 11.1111V88.8889C100 91.9444 98.9129 94.5611 96.7389 96.7389C94.5648 98.9167 91.9481 100.004 88.8889 100H11.1111ZM11.1111 88.8889H88.8889V11.1111H11.1111V88.8889ZM16.6667 77.7778H83.3333L62.5 50L45.8333 72.2222L33.3333 55.5555L16.6667 77.7778Z" fill="white"/>
</svg>
